<?xml version="1.0" standalone="no"?>
<!DOCTYPE svg PUBLIC "-//W3C//DTD SVG 20010904//EN"
 "http://www.w3.org/TR/2001/REC-SVG-20010904/DTD/svg10.dtd">
<svg version="1.0" xmlns="http://www.w3.org/2000/svg"
 width="100.000000pt" height="84.000000pt" viewBox="0 0 100.000000 84.000000"
 preserveAspectRatio="xMidYMid meet">
<metadata>
Created by potrace 1.13, written by Peter Selinger 2001-2015
</metadata>
<g transform="translate(0.000000,84.000000) scale(0.100000,-0.100000)"
fill="#000000" stroke="none">
<path d="M670 828 c1 -7 7 -24 15 -38 24 -42 19 -58 -22 -69 -21 -6 -66 -11
-100 -11 -35 0 -63 -4 -63 -10 0 -5 -12 -10 -27 -10 -35 0 -106 -32 -145 -65
-18 -15 -37 -23 -48 -20 -9 3 -45 -3 -79 -14 -39 -12 -63 -15 -67 -9 -9 14 13
26 56 34 51 8 62 13 56 23 -12 18 -58 22 -88 6 -17 -8 -42 -15 -55 -15 -24 0
-24 -1 -22 -82 2 -73 5 -86 26 -105 13 -13 30 -41 38 -64 8 -22 25 -55 37 -72
24 -33 50 -76 70 -115 9 -19 8 -25 -7 -36 -12 -9 -15 -15 -7 -20 7 -4 12 -3
12 2 0 6 7 13 16 16 8 3 12 2 9 -4 -3 -6 3 -10 13 -10 11 0 28 -12 37 -27 23
-35 51 -63 65 -63 6 0 16 -11 22 -25 9 -19 19 -25 43 -25 18 0 38 7 45 15 16
20 44 20 36 0 -4 -12 4 -15 44 -15 35 0 50 4 50 13 0 24 116 181 178 239 32
31 71 60 86 64 14 3 26 12 26 20 0 14 -24 10 -48 -9 -19 -15 -24 -3 -12 27 14
37 13 99 -1 90 -6 -3 -9 -18 -6 -32 10 -52 -25 -103 -129 -187 -54 -44 -112
-88 -129 -99 -39 -24 -131 -56 -163 -56 -36 0 -138 112 -208 229 -46 77 -58
105 -65 160 -4 36 -11 75 -15 86 -5 15 -1 13 20 -9 27 -28 50 -30 27 -2 -9 11
-9 16 0 22 6 4 16 0 21 -10 11 -20 22 -20 43 0 13 13 13 19 3 33 -12 14 -11
14 4 3 9 -7 20 -27 23 -43 10 -44 25 -35 25 16 0 33 4 45 15 45 8 0 15 -6 15
-13 0 -19 40 -49 56 -43 20 8 17 20 -11 49 l-26 25 23 16 c22 16 23 16 26 -14
4 -39 40 -59 74 -42 21 11 20 12 -9 6 -17 -3 -34 0 -38 5 -3 6 1 11 11 11 9 0
34 10 55 22 30 16 42 19 51 10 9 -9 17 -4 35 20 13 18 23 29 23 25 0 -4 10 -2
23 4 21 11 21 11 6 -7 -29 -35 -60 -96 -47 -92 7 2 21 19 30 37 27 53 57 80
89 79 21 -1 29 -6 29 -19 0 -10 5 -21 10 -24 10 -6 14 6 11 37 -1 9 7 22 18
28 17 9 21 20 21 65 0 30 -4 55 -10 55 -5 0 -10 -22 -10 -49 0 -41 -3 -51 -21
-56 -11 -4 -23 -4 -27 -1 -3 4 4 9 16 13 18 4 22 12 22 49 l0 44 -50 0 c-34 0
-50 -4 -50 -12z m-177 -165 c-7 -2 -19 -2 -25 0 -7 3 -2 5 12 5 14 0 19 -2 13
-5z m-28 -33 c3 -6 -1 -13 -10 -16 -19 -8 -30 0 -20 15 8 14 22 14 30 1z
m-341 -136 c19 -7 22 -58 4 -51 -7 2 -12 12 -12 21 1 9 -2 16 -7 16 -5 0 -9 5
-9 10 0 12 3 12 24 4z m476 -428 c0 -2 -9 -11 -19 -20 -18 -17 -20 -17 -30 2
-9 17 -7 19 19 20 17 0 30 -1 30 -2z"/>
<path d="M418 734 c-38 -19 -68 -40 -68 -48 0 -17 34 -10 87 17 17 9 49 19 72
23 55 9 56 26 1 36 -16 3 -50 -7 -92 -28z"/>
<path d="M790 700 c0 -5 5 -10 10 -10 6 0 10 5 10 10 0 6 -4 10 -10 10 -5 0
-10 -4 -10 -10z"/>
<path d="M830 676 c0 -8 -5 -16 -12 -18 -8 -3 -4 -12 10 -26 25 -25 26 -30 12
-52 -8 -12 -10 -11 -10 7 0 12 -4 25 -10 28 -6 4 -10 -7 -10 -24 0 -24 4 -31
20 -31 11 0 20 5 20 11 0 5 5 7 12 3 6 -4 16 0 22 8 6 8 18 17 26 21 11 4 10
6 -4 6 -10 1 -25 -7 -32 -16 -12 -17 -13 -16 -14 7 0 14 -3 35 -6 48 -6 20 -3
22 30 22 20 0 36 5 36 10 0 6 -20 10 -45 10 -32 0 -45 -4 -45 -14z"/>
<path d="M292 480 c0 -14 2 -19 5 -12 2 6 2 18 0 25 -3 6 -5 1 -5 -13z"/>
<path d="M830 489 c0 -5 5 -7 10 -4 6 3 10 8 10 11 0 2 -4 4 -10 4 -5 0 -10
-5 -10 -11z"/>
<path d="M210 455 c-8 -9 -8 -15 -2 -15 12 0 26 19 19 26 -2 2 -10 -2 -17 -11z"/>
<path d="M437 428 c-10 -11 -17 -21 -15 -24 6 -6 48 26 48 37 0 14 -13 9 -33
-13z"/>
<path d="M382 423 c-7 -2 -17 -13 -22 -24 -8 -15 -7 -17 5 -13 8 4 15 10 15
15 0 5 7 9 15 9 8 0 15 5 15 10 0 11 -7 12 -28 3z"/>
<path d="M295 389 c-10 -15 1 -23 20 -15 9 3 13 10 10 16 -8 13 -22 13 -30 -1z"/>
<path d="M450 311 c-84 -23 -140 -47 -140 -60 0 -13 12 -14 26 -2 5 4 47 19
94 31 47 13 92 30 100 37 19 18 4 16 -80 -6z"/>
<path d="M120 273 c0 -5 5 -15 11 -23 9 -13 10 -13 6 2 -3 9 -1 19 6 22 7 2 4
5 -5 5 -10 1 -18 -2 -18 -6z"/>
<path d="M88 243 c6 -2 18 -2 25 0 6 3 1 5 -13 5 -14 0 -19 -2 -12 -5z"/>
<path d="M390 210 c0 -5 4 -10 9 -10 6 0 13 5 16 10 3 6 -1 10 -9 10 -9 0 -16
-4 -16 -10z"/>
<path d="M80 195 c0 -10 10 -15 29 -15 16 0 36 -3 44 -6 8 -3 17 1 20 9 4 11
0 13 -15 9 -14 -3 -19 -1 -14 6 5 8 -4 12 -28 12 -25 0 -36 -4 -36 -15z"/>
<path d="M246 111 c-10 -11 -16 -35 -16 -64 0 -44 2 -47 25 -47 25 0 26 2 24
60 -2 68 -9 78 -33 51z"/>
</g>
</svg>
